<svg width="20" height="20" viewBox="0 0 20 20" fill="none" xmlns="http://www.w3.org/2000/svg">
<path d="M7.72802 15.8485C7.49084 15.8485 7.25366 15.7723 7.06641 15.609L3.27151 12.2989C2.9095 11.9832 2.9095 11.4605 3.27151 11.1448C3.63352 10.829 4.23272 10.829 4.59473 11.1448L8.38963 14.4548C8.75164 14.7706 8.75164 15.2932 8.38963 15.609C8.21487 15.7723 7.97768 15.8485 7.72802 15.8485Z" fill="#535353"/>
<path d="M7.72726 15.8482C7.21545 15.8482 6.79102 15.478 6.79102 15.0316V3.81662C6.79102 3.3702 7.21545 3 7.72726 3C8.23907 3 8.6635 3.3702 8.6635 3.81662V15.0425C8.6635 15.4889 8.25155 15.8482 7.72726 15.8482Z" fill="#535353"/>
<path d="M16.0669 7.94374C15.8297 7.94374 15.5925 7.86752 15.4053 7.70419L11.6104 4.39415C11.2484 4.07839 11.2484 3.55575 11.6104 3.23999C11.9724 2.92423 12.5716 2.92423 12.9336 3.23999L16.7285 6.55004C17.0905 6.8658 17.0905 7.38843 16.7285 7.70419C16.5413 7.85663 16.3041 7.94374 16.0669 7.94374Z" fill="#535353"/>
<path d="M12.2722 15.8482C11.7604 15.8482 11.3359 15.478 11.3359 15.0316V3.81662C11.3359 3.3702 11.7604 3 12.2722 3C12.784 3 13.2084 3.3702 13.2084 3.81662V15.0425C13.2084 15.4889 12.784 15.8482 12.2722 15.8482Z" fill="#535353"/>
</svg>
