<svg width="16" height="16" viewBox="0 0 16 16" fill="none" xmlns="http://www.w3.org/2000/svg">
<path d="M1.40788 16C1.05003 16 0.692172 15.8682 0.409653 15.5858C-0.136551 15.0397 -0.136551 14.1359 0.409653 13.5899L13.5939 0.409532C14.1401 -0.136511 15.0441 -0.136511 15.5903 0.409532C16.1366 0.955575 16.1366 1.85937 15.5903 2.40541L2.40612 15.5858C2.1236 15.8682 1.76574 16 1.40788 16Z" fill="#292D32"/>
<path d="M14.5921 16C14.2343 16 13.8764 15.8682 13.5939 15.5858L0.409653 2.40541C-0.136551 1.85937 -0.136551 0.955575 0.409653 0.409532C0.955857 -0.136511 1.85991 -0.136511 2.40612 0.409532L15.5903 13.5899C16.1366 14.1359 16.1366 15.0397 15.5903 15.5858C15.3078 15.8682 14.95 16 14.5921 16Z" fill="#292D32"/>
</svg>
