<svg width="14" height="14" viewBox="0 0 14 14" fill="none" xmlns="http://www.w3.org/2000/svg">
<path d="M0.629004 7.00008C0.629004 10.5145 3.48544 13.3709 6.99984 13.3709C10.5142 13.3709 13.3707 10.5145 13.3707 7.00008C13.3707 3.48569 10.5142 0.629248 6.99984 0.629248C3.48544 0.629248 0.629004 3.48569 0.629004 7.00008ZM1.704 7.00008C1.704 4.08031 4.08007 1.70425 6.99984 1.70425C9.91961 1.70425 12.2957 4.08031 12.2957 7.00008C12.2957 9.91985 9.91961 12.2959 6.99984 12.2959C4.08007 12.2959 1.704 9.91985 1.704 7.00008Z" fill="#535353" stroke="#535353" stroke-width="0.2"/>
<path d="M5.68789 1.43599L5.68792 1.43597L5.68648 1.43401C5.58643 1.29823 5.42269 1.2125 5.25014 1.2125H4.6668C4.37241 1.2125 4.1293 1.4556 4.1293 1.75C4.1293 1.9998 4.29609 2.209 4.52724 2.2698C3.6486 5.34684 3.6486 8.65316 4.52724 11.7302C4.29609 11.791 4.1293 12.0002 4.1293 12.25C4.1293 12.5444 4.37241 12.7875 4.6668 12.7875H5.25014C5.42229 12.7875 5.5851 12.7022 5.68491 12.5739L5.68501 12.574L5.68789 12.5698C5.78685 12.4285 5.81644 12.2496 5.75899 12.0837C4.6694 8.80282 4.66942 5.19712 5.75899 1.92218C5.81645 1.75627 5.78685 1.57735 5.68789 1.43599Z" fill="#535353" stroke="#535353" stroke-width="0.2"/>
<path d="M8.579 1.23496L8.579 1.23496C8.86338 1.14254 9.16534 1.2918 9.25894 1.57261M8.579 1.23496L9.16407 1.60423M8.579 1.23496L8.57828 1.2352C8.29739 1.32883 8.14796 1.63693 8.24084 1.91575C9.3306 5.19662 9.33069 8.8024 8.24121 12.0774C8.1409 12.3589 8.29935 12.6651 8.57657 12.7585M8.579 1.23496L8.57657 12.7585M9.25894 1.57261L9.16407 1.60423M9.25894 1.57261C9.25894 1.57259 9.25893 1.57258 9.25893 1.57256L9.16407 1.60423M9.25894 1.57261C10.4265 5.06937 10.4266 8.91775 9.25934 12.4088M9.16407 1.60423C10.3249 5.0809 10.3249 8.90756 9.16407 12.3784M9.25934 12.4088C9.25948 12.4084 9.25963 12.4079 9.25978 12.4074L9.16407 12.3784M9.25934 12.4088C9.1872 12.6446 8.97227 12.7876 8.74991 12.7876C8.69531 12.7876 8.63673 12.7808 8.57657 12.7585M9.25934 12.4088C9.2592 12.4093 9.25905 12.4097 9.25891 12.4101L9.16407 12.3784M9.16407 12.3784L8.57657 12.7585" fill="#535353" stroke="#535353" stroke-width="0.2"/>
<path d="M1.43599 8.31221L1.43597 8.31218L1.43401 8.31362C1.29823 8.41367 1.2125 8.57741 1.2125 8.74996V9.3333C1.2125 9.62769 1.4556 9.8708 1.75 9.8708C1.99978 9.8708 2.2079 9.70021 2.26926 9.47291C3.80801 9.91503 5.40133 10.1333 7 10.1333C8.59868 10.1333 10.192 9.91503 11.7361 9.47294C11.7969 9.70405 12.0061 9.8708 12.2558 9.8708C12.5502 9.8708 12.7933 9.62769 12.7933 9.3333V8.74996C12.7933 8.57983 12.7152 8.41398 12.5698 8.31221C12.4285 8.21325 12.2496 8.18365 12.0836 8.24111C8.80868 9.33069 5.19715 9.33069 1.92218 8.24111C1.75627 8.18365 1.57736 8.21325 1.43599 8.31221Z" fill="#535353" stroke="#535353" stroke-width="0.2"/>
<path d="M1.91528 5.75915L1.91527 5.75915C1.63089 5.85157 1.32893 5.70231 1.23533 5.4215L1.23437 5.41863L1.23442 5.41861C1.14954 5.1357 1.29766 4.83448 1.57858 4.74084M1.91528 5.75915L12.4161 4.74088L12.3844 4.83571L12.416 4.74084C8.92459 3.57316 5.07574 3.57318 1.57858 4.74084M1.91528 5.75915L1.91594 5.75893L1.91528 5.75915ZM1.57858 4.74084L1.6102 4.83571L1.57853 4.74086C1.57854 4.74086 1.57856 4.74085 1.57858 4.74084ZM12.0786 5.75893L12.1102 5.66405L12.0751 5.75768C12.0757 5.75791 12.0763 5.75815 12.077 5.75838C12.0775 5.75856 12.0781 5.75875 12.0786 5.75893ZM12.7527 5.42367C12.753 5.42269 12.7533 5.42171 12.7537 5.42074C12.754 5.41975 12.7543 5.41875 12.7546 5.41776L12.6585 5.38988L12.7527 5.42367Z" fill="#535353" stroke="#535353" stroke-width="0.2"/>
</svg>
