<svg width="20" height="20" viewBox="0 0 20 20" fill="none" xmlns="http://www.w3.org/2000/svg">
<path d="M19.0552 9.94288C19.056 9.28045 19 8.61917 18.8877 7.96631H9.72046V11.7102H14.9711C14.8636 12.3081 14.6362 12.8781 14.3025 13.3858C13.9689 13.8935 13.5359 14.3284 13.0296 14.6642V17.0944H16.1632C17.998 15.4027 19.0552 12.901 19.0552 9.94288Z" fill="#7A7A7A"/>
<path d="M9.72045 19.4424C12.3437 19.4424 14.5525 18.581 16.1632 17.0959L13.0296 14.6657C12.1574 15.257 11.0341 15.5946 9.72045 15.5946C7.18493 15.5946 5.03285 13.8853 4.26328 11.582H1.03516V14.0865C1.84424 15.6965 3.08487 17.0499 4.61855 17.9957C6.15224 18.9414 7.9186 19.4423 9.72045 19.4424Z" fill="#7A7A7A"/>
<path d="M4.26322 11.5818C3.85638 10.3749 3.85638 9.06785 4.26322 7.86091V5.35645H1.0351C0.35447 6.71082 0 8.20559 0 9.72137C0 11.2371 0.35447 12.7319 1.0351 14.0863L4.26322 11.5818Z" fill="#7A7A7A"/>
<path d="M9.72045 3.84847C11.1067 3.82582 12.4463 4.3496 13.4495 5.30659L16.224 2.5321C14.4646 0.879666 12.1339 -0.0275514 9.72045 0.000637778C7.9186 0.000719899 6.15224 0.501605 4.61855 1.44737C3.08487 2.39314 1.84424 3.74656 1.03516 5.35655L4.26328 7.86101C5.03285 5.55771 7.18493 3.84847 9.72045 3.84847Z" fill="#7A7A7A"/>
</svg>
