<svg width="12" style="
    position: fixed;" height="9" viewBox="0 0 12 9" fill="none" xmlns="http://www.w3.org/2000/svg">
<path d="M4.4569 7.05488L4.45686 7.05485L4.45338 7.05864C4.36937 7.15009 4.242 7.15009 4.15799 7.05864L1.67133 4.35164C1.46168 4.1234 1.1085 4.1234 0.898841 4.35164C0.700386 4.56768 0.700386 4.91394 0.898841 5.12998L1.08295 4.96086L0.898841 5.12998L3.38549 7.83698C3.63422 8.10775 3.96763 8.25 4.30568 8.25C4.64292 8.25 4.97552 8.10844 5.22405 7.83896L11.0976 1.70327L11.0977 1.70331L11.1012 1.69952C11.2996 1.48348 11.2996 1.13722 11.1012 0.921177C10.8922 0.693659 10.5405 0.692942 10.3307 0.919026L4.4569 7.05488Z" fill="#535353" stroke="#535353" stroke-width="0.5"/>
</svg>